<mxfile host="app.diagrams.net" modified="2023-05-30T14:06:40.453Z" agent="5.0 (Windows NT 10.0; Win64; x64) AppleWebKit/537.36 (KHTML, like Gecko) Chrome/113.0.0.0 Safari/537.36 Edg/113.0.1774.57" etag="kXcQW3L5J8EePVLBDfLY" version="20.8.13" type="github">
  <diagram name="Seite-1" id="BGsBpHx3eo_VF_Qteiio">
    <mxGraphModel dx="1434" dy="876" grid="1" gridSize="10" guides="1" tooltips="1" connect="1" arrows="1" fold="1" page="1" pageScale="1" pageWidth="827" pageHeight="1169" math="0" shadow="0">
      <root>
        <mxCell id="0" />
        <mxCell id="1" parent="0" />
        <mxCell id="uGyRQctbaovy1EAJcXlJ-2" value="Kickbase-API&lt;br&gt;League/Stats" style="shape=cylinder3;whiteSpace=wrap;html=1;boundedLbl=1;backgroundOutline=1;size=15;" vertex="1" parent="1">
          <mxGeometry x="180" y="100" width="130" height="80" as="geometry" />
        </mxCell>
        <mxCell id="uGyRQctbaovy1EAJcXlJ-3" value="API-Fixtures" style="shape=cylinder3;whiteSpace=wrap;html=1;boundedLbl=1;backgroundOutline=1;size=15;" vertex="1" parent="1">
          <mxGeometry x="470" y="100" width="130" height="80" as="geometry" />
        </mxCell>
      </root>
    </mxGraphModel>
  </diagram>
</mxfile>
